# xmcd
#
# Track frame offsets:
# 150
# 12381
# 19580
# 25743
# 36452
# 49741
# 59129
# 69419
# 85731
# 100180
#
# Disc length: 1493 seconds
#
#
# Revision: 0
# Processed by: cddbd v1.5.2PL0 Copyright (c) Steve Scherf et al.
# Submitted via: FreeRIP 2.942 
#
DISCID=7e05d30a
DTITLE=Various Artist - Country Roadhouse
DYEAR=2000
DGENRE=Country
TTITLE0=Me and Bobby McGee - Loretta Lynn
TTITLE1=Luckenback, Texas - Willie Nelson
TTITLE2=Get Rhythm - Johnny Cash
TTITLE3=Honky Tonk Merry Go Round - Pasty Cline
TTITLE4=When I Lay My Burden Down - Roy Acuff
TTITLE5=Boat of Life - George Jones
TTITLE6=Somebody Bigger Than You and I - Sons of the Pioneers
TTITLE7=One's on the Way - Loretta Lynn
TTITLE8=What's Made Milwaukee Famous - Jerry Lee Lewis
TTITLE9=Your Old Love Letters - Jim Reeves
EXTD=
EXTT0=
EXTT1=
EXTT2=
EXTT3=
EXTT4=
EXTT5=
EXTT6=
EXTT7=
EXTT8=
EXTT9=
PLAYORDER=
